HIERARCHY
ROOT hip
{
  OFFSET -28.1951 78.2798 -8.98908
  CHANNELS 6 Xposition Yposition Zposition Zrotation Xrotation Yrotation
  JOINT abdomen
  {
    OFFSET 0 20.6881 -0.73152
    CHANNELS 3 Zrotation Xrotation Yrotation
    JOINT chest
    {
      OFFSET 0 11.7043 -0.48768
      CHANNELS 3 Zrotation Xrotation Yrotation
      JOINT neck
      {
        OFFSET 0 22.1894 -2.19456
        CHANNELS 3 Zrotation Xrotation Yrotation
        JOINT head
        {
          OFFSET -0.24384 7.07133 1.2192
          CHANNELS 3 Zrotation Xrotation Yrotation
          JOINT leftEye
          {
            OFFSET 4.14528 8.04674 8.04672
            CHANNELS 3 Zrotation Xrotation Yrotation
            End Site
            {
              OFFSET 1 0 0
            }
          }
          JOINT rightEye
          {
            OFFSET -3.6576 8.04674 8.04672
            CHANNELS 3 Zrotation Xrotation Yrotation
            End Site
            {
              OFFSET 1 0 0
            }
          }
        }
      }
      JOINT rCollar
      {
        OFFSET -2.68224 19.2634 -4.8768
        CHANNELS 3 Zrotation Xrotation Yrotation
        JOINT rShldr
        {
          OFFSET -8.77824 -1.95073 1.46304
          CHANNELS 3 Zrotation Xrotation Yrotation
          JOINT rForeArm
          {
            OFFSET -28.1742 -1.7115 0.48768
            CHANNELS 3 Zrotation Xrotation Yrotation
            JOINT rHand
            {
              OFFSET -22.5879 0.773209 7.07136
              CHANNELS 3 Zrotation Xrotation Yrotation
              JOINT rThumb1
              {
                OFFSET -1.2192 -0.487915 3.41376
                CHANNELS 3 Zrotation Xrotation Yrotation
                JOINT rThumb2
                {
                  OFFSET -3.37035 -0.52449 3.41376
                  CHANNELS 3 Zrotation Xrotation Yrotation
                  End Site
                  {
                    OFFSET -1.78271 -1.18214 1.43049
                  }
                }
              }
              JOINT rIndex1
              {
                OFFSET -7.75947 0.938293 5.60832
                CHANNELS 3 Zrotation Xrotation Yrotation
                JOINT rIndex2
                {
                  OFFSET -2.54057 -0.884171 1.56538
                  CHANNELS 3 Zrotation Xrotation Yrotation
                  End Site
                  {
                    OFFSET -1.62519 -0.234802 1.16502
                  }
                }
              }
              JOINT rMid1
              {
                OFFSET -8.24714 1.18213 3.41376
                CHANNELS 3 Zrotation Xrotation Yrotation
                JOINT rMid2
                {
                  OFFSET -3.10165 -0.590103 1.0647
                  CHANNELS 3 Zrotation Xrotation Yrotation
                  End Site
                  {
                    OFFSET -2.48547 -0.328903 0.83742
                  }
                }
              }
              JOINT rRing1
              {
                OFFSET -8.82822 0.546677 1.51678
                CHANNELS 3 Zrotation Xrotation Yrotation
                JOINT rRing2
                {
                  OFFSET -2.60934 -0.819778 -0.0198488
                  CHANNELS 3 Zrotation Xrotation Yrotation
                  End Site
                  {
                    OFFSET -2.33842 -0.294052 0.168128
                  }
                }
              }
              JOINT rPinky1
              {
                OFFSET -8.27202 -0.0477905 -0.4584
                CHANNELS 3 Zrotation Xrotation Yrotation
                JOINT rPinky2
                {
                  OFFSET -1.82734 -0.647385 -0.700984
                  CHANNELS 3 Zrotation Xrotation Yrotation
                  End Site
                  {
                    OFFSET -1.69225 -0.51767 -0.607171
                  }
                }
              }
            }
          }
        }
      }
      JOINT lCollar
      {
        OFFSET 2.68224 19.2634 -4.8768
        CHANNELS 3 Zrotation Xrotation Yrotation
        JOINT lShldr
        {
          OFFSET 8.77824 -1.95073 1.46304
          CHANNELS 3 Zrotation Xrotation Yrotation
          JOINT lForeArm
          {
            OFFSET 28.1742 -1.7115 0.48768
            CHANNELS 3 Zrotation Xrotation Yrotation
            JOINT lHand
            {
              OFFSET 22.5879 0.773209 7.07136
              CHANNELS 3 Zrotation Xrotation Yrotation
              JOINT lThumb1
              {
                OFFSET 1.2192 -0.487915 3.41376
                CHANNELS 3 Zrotation Xrotation Yrotation
                JOINT lThumb2
                {
                  OFFSET 3.37035 -0.52449 3.41376
                  CHANNELS 3 Zrotation Xrotation Yrotation
                  End Site
                  {
                    OFFSET 1.78271 -1.18214 1.43049
                  }
                }
              }
              JOINT lIndex1
              {
                OFFSET 7.75947 0.938293 5.60832
                CHANNELS 3 Zrotation Xrotation Yrotation
                JOINT lIndex2
                {
                  OFFSET 2.54057 -0.884171 1.56538
                  CHANNELS 3 Zrotation Xrotation Yrotation
                  End Site
                  {
                    OFFSET 1.62519 -0.234802 1.16502
                  }
                }
              }
              JOINT lMid1
              {
                OFFSET 8.24714 1.18213 3.41376
                CHANNELS 3 Zrotation Xrotation Yrotation
                JOINT lMid2
                {
                  OFFSET 3.10165 -0.590103 1.0647
                  CHANNELS 3 Zrotation Xrotation Yrotation
                  End Site
                  {
                    OFFSET 2.48547 -0.328903 0.83742
                  }
                }
              }
              JOINT lRing1
              {
                OFFSET 8.82822 0.546677 1.51678
                CHANNELS 3 Zrotation Xrotation Yrotation
                JOINT lRing2
                {
                  OFFSET 2.60934 -0.819778 -0.0198488
                  CHANNELS 3 Zrotation Xrotation Yrotation
                  End Site
                  {
                    OFFSET 2.33842 -0.294052 0.168128
                  }
                }
              }
              JOINT lPinky1
              {
                OFFSET 8.27202 -0.0477905 -0.4584
                CHANNELS 3 Zrotation Xrotation Yrotation
                JOINT lPinky2
                {
                  OFFSET 1.82734 -0.647385 -0.700984
                  CHANNELS 3 Zrotation Xrotation Yrotation
                  End Site
                  {
                    OFFSET 1.69225 -0.51767 -0.607171
                  }
                }
              }
            }
          }
        }
      }
    }
  }
  JOINT rButtock
  {
    OFFSET -8.77824 4.35084 1.2192
    CHANNELS 3 Zrotation Xrotation Yrotation
    JOINT rThigh
    {
      OFFSET 0 -1.70687 -2.19456
      CHANNELS 3 Zrotation Xrotation Yrotation
      JOINT rShin
      {
        OFFSET 0 -36.8199 0.73152
        CHANNELS 3 Zrotation Xrotation Yrotation
        JOINT rFoot
        {
          OFFSET 0.73152 -45.1104 -5.12064
          CHANNELS 3 Zrotation Xrotation Yrotation
          End Site
          {
            OFFSET -1.1221 -3.69964 12.103
          }
        }
      }
    }
  }
  JOINT lButtock
  {
    OFFSET 8.77824 4.35084 1.2192
    CHANNELS 3 Zrotation Xrotation Yrotation
    JOINT lThigh
    {
      OFFSET 0 -1.70687 -2.19456
      CHANNELS 3 Zrotation Xrotation Yrotation
      JOINT lShin
      {
        OFFSET 0 -36.8199 0.73152
        CHANNELS 3 Zrotation Xrotation Yrotation
        JOINT lFoot
        {
          OFFSET -0.73152 -45.1104 -5.12064
          CHANNELS 3 Zrotation Xrotation Yrotation
          End Site
          {
            OFFSET 1.1221 -3.69964 12.103
          }
        }
      }
    }
  }
}
MOTION
Frames:	8
Frame Time:	0.00833333
-14.1712 78.6078 -88.5149 -0.381113 -15.898 -104.064 -7.49997 11.0002 1.03179 0.973535 -2.62532 0.263847 -14.446 14.4635 -22.5454 36.7284 -17.3426 -39.2186 -0 0 0 -0 0 0 -1.23988e-013 -1.4368e-012 -3.46581e-013 119.576 -66.8996 92.4578 -5.48788 -1.82034 9.57184 -0.0388944 5.61999 0.792406 -2.9129e-009 -3.11165e-009 -6.19264e-010 -5.03733e-009 -5.45052e-009 -1.05217e-009 -2.91289e-009 -3.11165e-009 -6.19273e-010 7.73091 5.47488 0.417314 -2.9129e-009 -3.11164e-009 -6.1926e-010 2.90554 0.965183 0.102902 -2.91288e-009 -3.11166e-009 -6.19261e-010 10.2786 0.731801 0.0259123 -2.9129e-009 -3.11166e-009 -6.19257e-010 2.22167 -0.733487 -0.20892 -1.24103e-013 -1.43683e-012 -3.4678e-013 -30.4863 1.08191 5.13393 13.9501 -6.91429 -25.4539 0.0342441 -5.27461 0.743421 -1.18675e-009 -7.49739e-009 -2.8015e-009 -2.04237e-009 -1.29785e-008 -4.84799e-009 -1.18675e-009 -7.4974e-009 -2.80149e-009 -7.73091 5.47488 -0.417314 -1.18675e-009 -7.49739e-009 -2.8015e-009 -2.90554 0.965183 -0.102902 -1.18675e-009 -7.4974e-009 -2.8015e-009 -10.2786 0.731801 -0.0259123 -1.18674e-009 -7.49739e-009 -2.80151e-009 -2.22167 -0.733487 0.20892 -2.03217e-016 0 -3.88251e-019 11.2706 -17.6453 10.1428 -0.188686 33.9886 0.608234 -4.08315 -11.6509 -13.0108 2.03217e-016 0 3.88251e-019 19.6967 -41.1818 14.8748 3.75536 77.3562 -4.29871 2.67865 -10.2651 7.4424 
-13.095 78.6516 -89.4307 0.0977896 -16.1678 -103.002 -6.98857 10.7488 0.926767 0.959182 -2.55178 0.234961 -14.3256 14.4033 -22.6512 36.3868 -17.462 -39.4382 -0 0 0 -0 0 0 2.32838e-015 -1.34622e-012 -3.57441e-013 115.572 -67.3015 89.0888 -5.52779 -1.83753 9.64277 -0.00529467 3.94567 0.554809 -3.32276e-009 -1.59873e-009 -9.04195e-010 -5.7449e-009 -2.82786e-009 -1.54624e-009 -3.32276e-009 -1.59873e-009 -9.04205e-010 7.73091 5.47488 0.417314 -3.32276e-009 -1.59872e-009 -9.04193e-010 2.90554 0.965183 0.102902 -3.32275e-009 -1.59874e-009 -9.04195e-010 10.2786 0.731801 0.0259123 -3.32276e-009 -1.59874e-009 -9.04191e-010 2.22167 -0.733487 -0.20892 2.18306e-015 -1.34626e-012 -3.57621e-013 -30.758 1.10888 5.21933 13.8924 -6.86773 -25.3382 0.0377454 -5.55255 0.782814 -3.14426e-010 -7.69261e-009 -2.75792e-009 -5.33895e-010 -1.33135e-008 -4.77123e-009 -3.14427e-010 -7.69262e-009 -2.75791e-009 -7.73091 5.47488 -0.417314 -3.14426e-010 -7.69262e-009 -2.75792e-009 -2.90554 0.965183 -0.102902 -3.14428e-010 -7.69262e-009 -2.75792e-009 -10.2786 0.731801 -0.0259123 -3.1442e-010 -7.69261e-009 -2.75793e-009 -2.22167 -0.733487 0.20892 -2.03217e-016 0 -3.88251e-019 11.1559 -16.7654 10.3649 -0.174584 33.2946 0.622582 -4.17732 -11.7934 -13.3253 2.03217e-016 0 3.88251e-019 20.3568 -42.4802 14.5135 3.30696 76.0539 -3.86743 2.7338 -11.068 7.36167 
-12.0323 78.6886 -90.3115 0.668867 -16.5419 -101.923 -6.35379 10.3837 0.869557 0.855516 -2.64514 0.220177 -14.0907 14.4084 -22.7846 35.8507 -17.52 -39.7595 -0 0 0 -0 0 0 1.80388e-013 -1.03785e-012 -3.24491e-013 108.979 -67.7499 83.2836 -5.60351 -1.87015 9.77761 0.0180281 1.26332 0.177013 -3.41463e-009 3.38067e-010 -1.29558e-009 -5.90277e-009 5.36688e-010 -2.22715e-009 -3.41462e-009 3.38066e-010 -1.29559e-009 7.73091 5.47488 0.417314 -3.41463e-009 3.38077e-010 -1.29558e-009 2.90554 0.965183 0.102902 -3.41461e-009 3.38068e-010 -1.29558e-009 10.2786 0.731801 0.0259123 -3.41463e-009 3.38066e-010 -1.29558e-009 2.22167 -0.733487 -0.20892 1.80191e-013 -1.03787e-012 -3.24637e-013 -30.9662 1.34229 5.28973 13.8474 -6.83172 -25.2481 0.0427771 -5.91333 0.834025 5.84952e-010 -6.56829e-009 -2.41821e-009 1.01954e-009 -1.13619e-008 -4.18121e-009 5.84949e-010 -6.5683e-009 -2.4182e-009 -7.73091 5.47488 -0.417314 5.84951e-010 -6.5683e-009 -2.41822e-009 -2.90554 0.965183 -0.102902 5.8495e-010 -6.5683e-009 -2.41821e-009 -10.2786 0.731801 -0.0259123 5.84957e-010 -6.56829e-009 -2.41822e-009 -2.22167 -0.733487 0.20892 -2.03217e-016 0 -3.88251e-019 11.1667 -15.9635 10.4225 -0.160918 32.5246 0.632511 -4.28559 -11.8728 -13.7221 2.03217e-016 0 3.88251e-019 21.2512 -43.7352 14.3477 2.87665 74.52 -3.45486 2.84207 -11.8841 7.45313 
-10.9118 78.7494 -91.1622 1.24606 -16.9028 -100.798 -5.73944 10.0336 0.835651 0.728638 -2.78486 0.211271 -13.8542 14.4602 -22.903 35.3724 -17.5794 -40.0491 -0 0 0 -0 0 0 3.39067e-013 -6.73019e-013 -2.71389e-013 102.415 -67.9945 77.4474 -5.67825 -1.90237 9.91099 0.00765237 -1.22616 -0.17248 -3.26387e-009 2.02432e-009 -1.60947e-009 -5.64131e-009 3.47061e-009 -2.77486e-009 -3.26387e-009 2.02432e-009 -1.60949e-009 7.73091 5.47488 0.417314 -3.26387e-009 2.02433e-009 -1.60948e-009 2.90554 0.965183 0.102902 -3.26386e-009 2.02433e-009 -1.60948e-009 10.2786 0.731801 0.0259123 -3.26387e-009 2.02433e-009 -1.60948e-009 2.22167 -0.733487 -0.20892 3.38818e-013 -6.7303e-013 -2.71503e-013 -31.129 1.59486 5.3417 13.8037 -6.79699 -25.1603 0.0476484 -6.22677 0.878595 1.31972e-009 -4.92791e-009 -1.95123e-009 2.28769e-009 -8.51724e-009 -3.37106e-009 1.31971e-009 -4.92792e-009 -1.95122e-009 -7.73091 5.47488 -0.417314 1.31971e-009 -4.92793e-009 -1.95124e-009 -2.90554 0.965183 -0.102902 1.31971e-009 -4.92792e-009 -1.95123e-009 -10.2786 0.731801 -0.0259123 1.31972e-009 -4.92791e-009 -1.95124e-009 -2.22167 -0.733487 0.20892 -2.03217e-016 0 -3.88251e-019 11.1849 -15.2386 10.3818 -0.150214 31.8756 0.640907 -4.38119 -11.8836 -14.1077 2.03217e-016 0 3.88251e-019 22.1237 -44.7916 14.1878 2.48198 72.7796 -3.07551 2.95627 -12.6636 7.57669 
-9.73283 78.8508 -92.0586 1.73543 -17.132 -99.6212 -5.2895 9.82713 0.80052 0.644742 -2.85039 0.200018 -13.7294 14.5406 -22.9637 35.2041 -17.7037 -40.1741 -0 0 0 -0 0 0 4.07239e-013 -4.13076e-013 -2.21794e-013 98.7108 -68.1583 74.2356 -5.71546 -1.9184 9.97751 -0.00661534 -2.32167 -0.32647 -2.94587e-009 2.78561e-009 -1.66194e-009 -5.09088e-009 4.8014e-009 -2.86931e-009 -2.94587e-009 2.7856e-009 -1.66195e-009 7.73091 5.47488 0.417314 -2.94587e-009 2.78561e-009 -1.66194e-009 2.90554 0.965183 0.102902 -2.94586e-009 2.78561e-009 -1.66195e-009 10.2786 0.731801 0.0259123 -2.94587e-009 2.78561e-009 -1.66194e-009 2.22167 -0.733487 -0.20892 4.0696e-013 -4.13075e-013 -2.21893e-013 -31.2639 1.67939 5.37157 13.7497 -6.7542 -25.0517 0.0499111 -6.36271 0.897951 1.6982e-009 -3.57498e-009 -1.52581e-009 2.94035e-009 -6.17285e-009 -2.63393e-009 1.69819e-009 -3.57499e-009 -1.5258e-009 -7.73091 5.47488 -0.417314 1.69819e-009 -3.575e-009 -1.52582e-009 -2.90554 0.965183 -0.102902 1.69819e-009 -3.57499e-009 -1.52581e-009 -10.2786 0.731801 -0.0259123 1.6982e-009 -3.57498e-009 -1.52582e-009 -2.22167 -0.733487 0.20892 -2.03217e-016 0 -3.88251e-019 11.0884 -14.59 10.3078 -0.144976 31.5446 0.65055 -4.43687 -11.8208 -14.3886 2.03217e-016 0 3.88251e-019 22.7012 -45.4944 13.8297 2.13133 70.8573 -2.7347 3.02096 -13.3574 7.59023 
-8.56955 78.9413 -93.1133 2.09993 -17.2069 -98.4838 -4.96643 9.79669 0.733674 0.610215 -2.81765 0.179273 -13.7805 14.6885 -22.9318 35.5331 -17.929 -40.0393 -0 0 0 -0 0 0 3.33615e-013 -3.00228e-013 -1.74306e-013 99.3355 -68.5217 75.0295 -5.70108 -1.91212 9.95184 0.00647256 -1.28835 -0.181188 -2.31057e-009 2.08238e-009 -1.28368e-009 -3.99196e-009 3.59567e-009 -2.21739e-009 -2.31057e-009 2.08237e-009 -1.2837e-009 7.73091 5.47488 0.417314 -2.31057e-009 2.08238e-009 -1.28369e-009 2.90554 0.965183 0.102902 -2.31056e-009 2.08238e-009 -1.28369e-009 10.2786 0.731801 0.0259123 -2.31057e-009 2.08238e-009 -1.28368e-009 2.22167 -0.733487 -0.20892 3.33336e-013 -3.00217e-013 -1.74418e-013 -31.3741 1.58872 5.39708 13.687 -6.70451 -24.9265 0.0490233 -6.29101 0.887768 1.45393e-009 -2.50067e-009 -1.16112e-009 2.51684e-009 -4.31463e-009 -2.00345e-009 1.45392e-009 -2.50067e-009 -1.16111e-009 -7.73091 5.47488 -0.417314 1.45393e-009 -2.50068e-009 -1.16114e-009 -2.90554 0.965183 -0.102902 1.45392e-009 -2.50067e-009 -1.16112e-009 -10.2786 0.731801 -0.0259123 1.45393e-009 -2.50066e-009 -1.16113e-009 -2.22167 -0.733487 0.20892 -2.03217e-016 0 -3.88251e-019 10.9203 -13.9207 10.1718 -0.144515 31.4504 0.660035 -4.48474 -11.7212 -14.6393 2.03217e-016 0 3.88251e-019 23.0448 -45.7954 13.3309 1.81952 68.7065 -2.4262 3.02291 -13.9742 7.46413 
-7.3769 79.0563 -94.0347 2.38638 -17.189 -97.3734 -4.71812 9.87431 0.656053 0.593582 -2.74824 0.155074 -13.9363 14.8994 -22.8379 36.1877 -18.2168 -39.7353 -0 0 0 -0 0 0 1.66902e-013 -2.48698e-013 -1.18876e-013 102.753 -68.9965 78.4175 -5.65604 -1.89258 9.87149 0.016841 1.09517 0.153471 -1.37449e-009 3.94234e-010 -6.12883e-010 -2.37312e-009 6.85652e-010 -1.05905e-009 -1.37449e-009 3.94216e-010 -6.12893e-010 7.73091 5.47488 0.417314 -1.37449e-009 3.94235e-010 -6.12885e-010 2.90554 0.965183 0.102902 -1.37448e-009 3.94238e-010 -6.12886e-010 10.2786 0.731801 0.0259123 -1.37449e-009 3.94239e-010 -6.12877e-010 2.22167 -0.733487 -0.20892 1.66642e-013 -2.48675e-013 -1.19019e-013 -31.4503 1.40847 5.41394 13.6202 -6.65162 -24.7935 0.0461342 -6.07958 0.857727 7.60923e-010 -1.3508e-009 -7.75733e-010 1.31748e-009 -2.328e-009 -1.33813e-009 7.60919e-010 -1.3508e-009 -7.75722e-010 -7.73091 5.47488 -0.417314 7.60925e-010 -1.35081e-009 -7.75748e-010 -2.90554 0.965183 -0.102902 7.60917e-010 -1.3508e-009 -7.75734e-010 -10.2786 0.731801 -0.0259123 7.60929e-010 -1.3508e-009 -7.75742e-010 -2.22167 -0.733487 0.20892 -2.03217e-016 0 -3.88251e-019 10.7252 -13.2624 9.95534 -0.148164 31.5325 0.668654 -4.52478 -11.5753 -14.8761 2.03217e-016 0 3.88251e-019 23.2662 -45.7768 12.7667 1.54621 66.3318 -2.15114 2.98738 -14.533 7.27004 
-6.13109 79.1699 -94.721 2.62012 -17.0585 -96.1562 -4.66707 10.0381 0.620317 0.604235 -2.65017 0.138981 -14.1067 15.0894 -22.7377 36.8803 -18.519 -39.4085 -0 0 0 -0 0 0 -1.4028e-014 -2.27852e-013 -6.6191e-014 107.134 -69.3446 82.7238 -5.59649 -1.86684 9.76533 -0.00415918 3.7591 0.528524 -4.62868e-010 -1.42457e-009 7.31791e-011 -7.96873e-010 -2.4527e-009 1.2616e-010 -4.62867e-010 -1.42459e-009 7.3171e-011 7.73091 5.47488 0.417314 -4.62869e-010 -1.42456e-009 7.31782e-011 2.90554 0.965183 0.102902 -4.62865e-010 -1.42456e-009 7.31807e-011 10.2786 0.731801 0.0259123 -4.62873e-010 -1.42456e-009 7.3191e-011 2.22167 -0.733487 -0.20892 -1.42615e-014 -2.27819e-013 -6.63673e-014 -31.4917 1.09058 5.38544 13.5415 -6.58995 -24.6368 0.0412827 -5.74531 0.810242 8.82111e-011 -4.10872e-010 -3.87588e-010 1.53551e-010 -7.05654e-010 -6.68404e-010 8.82106e-011 -4.10869e-010 -3.87578e-010 -7.73091 5.47488 -0.417314 8.82161e-011 -4.10882e-010 -3.87603e-010 -2.90554 0.965183 -0.102902 8.82056e-011 -4.10869e-010 -3.87589e-010 -10.2786 0.731801 -0.0259123 8.82189e-011 -4.10866e-010 -3.87596e-010 -2.22167 -0.733487 0.20892 -2.03217e-016 0 -3.88251e-019 10.3761 -12.8087 9.73573 -0.158641 32.0191 0.680331 -4.48267 -11.3088 -14.9196 2.03217e-016 0 3.88251e-019 23.1647 -45.4736 11.9563 1.31471 63.8348 -1.91342 2.91208 -15.002 7.01633 
